<?xml version="1.0" encoding="UTF-8"?>
<svg version="1.1" xmlns="http://www.w3.org/2000/svg" width="406" height="661">
<path d="M0 0 C1.50884315 0.00934785 3.01770168 0.01645462 4.52656555 0.0214386 C8.46092052 0.04035398 12.39432409 0.08931587 16.32830811 0.1449585 C20.35741309 0.19648941 24.38667473 0.21902416 28.41601562 0.24414062 C36.2947031 0.29745427 44.17262319 0.38257309 52.05078125 0.48828125 C52.07762804 3.13418139 52.09754482 5.77981221 52.11328125 8.42578125 C52.12166016 9.18052734 52.13003906 9.93527344 52.13867188 10.71289062 C52.14730566 12.63822438 52.10302458 14.56363706 52.05078125 16.48828125 C48.03179689 20.50726561 34.38799767 18.70728237 29.02734375 18.76953125 C27.80421478 18.78794067 26.58108582 18.8063501 25.32089233 18.82531738 C20.11684466 18.90362562 14.91268037 18.97199224 9.70849609 19.04052734 C5.89804537 19.09216717 2.08770796 19.14941069 -1.72265625 19.20703125 C-3.49447769 19.22739441 -3.49447769 19.22739441 -5.30209351 19.24816895 C-6.3939798 19.26488647 -7.48586609 19.281604 -8.61083984 19.29882812 C-9.57186615 19.3113562 -10.53289246 19.32388428 -11.52304077 19.33679199 C-14.09088114 19.39300595 -14.09088114 19.39300595 -16.94921875 20.48828125 C-19.41274888 24.76704411 -19.41335575 28.6921989 -18.94921875 33.48828125 C-15.52173363 37.44236111 -10.64398034 37.22208668 -5.76171875 37.61328125 C2.94457904 38.38207904 2.94457904 38.38207904 4.05078125 39.48828125 C4.17699939 41.04692857 4.22659436 42.61207542 4.23828125 44.17578125 C4.25246094 45.02527344 4.26664063 45.87476563 4.28125 46.75 C4.05078125 49.48828125 4.05078125 49.48828125 3.06225586 51.92382812 C1.61285255 57.03154917 1.69204727 61.97116496 1.63671875 67.2578125 C1.6173526 68.42332642 1.59798645 69.58884033 1.57803345 70.78967285 C1.51739491 74.62663387 1.47118769 78.46361193 1.42578125 82.30078125 C1.39754522 84.32974231 1.36794733 86.3586808 1.33831406 88.38762188 C1.09119276 105.45447789 1.00619909 122.51853517 1.05947876 139.58709717 C1.12583657 163.0350161 0.86535317 186.47954853 0.61328125 209.92578125 C0.5967494 211.4772542 0.5967494 211.4772542 0.57988358 213.06007004 C0.32719428 236.72711724 0.02989148 260.39105484 -0.44595337 284.05474854 C-0.90319726 307.05782939 -1.11240424 330.06042097 -1.1803894 353.06768799 C-1.19139053 356.69417774 -1.20913583 360.32053265 -1.23294067 363.94696045 C-1.26036367 368.21413204 -1.27257125 372.48108918 -1.27335548 376.74834633 C-1.27597951 378.32745364 -1.28366127 379.90656202 -1.29681969 381.48561668 C-1.39268524 393.68948715 -0.39902027 403.12819666 8.05078125 412.48828125 C15.2505847 419.65498215 22.44765158 423.57341135 32.73828125 423.73828125 C40.75789741 423.66914663 47.29028515 421.79041513 54.05078125 417.48828125 C55.04078125 417.48828125 56.03078125 417.48828125 57.05078125 417.48828125 C57.52440087 422.12975357 57.72827136 426.18116539 55.17578125 430.23828125 C50.5046949 435.88032375 43.80659341 438.52927741 36.67578125 439.42578125 C22.54956988 440.04082697 11.21041019 435.28261473 0.61328125 425.98828125 C-0.92677937 424.50802881 -2.44971104 423.00959998 -3.94921875 421.48828125 C-4.53445312 420.91335938 -5.1196875 420.3384375 -5.72265625 419.74609375 C-16.26467098 408.56192584 -17.25537436 393.95710984 -17.18972778 379.37802124 C-17.19060132 377.96695778 -17.19235503 376.55589463 -17.19490612 375.14483321 C-17.19935452 371.29084947 -17.19141069 367.43697798 -17.18134999 363.58300853 C-17.17268144 359.41818305 -17.17563806 355.25336346 -17.17715454 351.08853149 C-17.17820124 343.88046148 -17.17194712 336.67242779 -17.16067886 329.46436691 C-17.14439768 319.04283428 -17.13921318 308.62131914 -17.13670288 298.19977517 C-17.13232988 281.28991179 -17.11903152 264.38006774 -17.10009766 247.47021484 C-17.08172862 231.04768978 -17.06757712 214.62516998 -17.05908203 198.20263672 C-17.05855658 197.18968546 -17.05803114 196.1767342 -17.05748977 195.13308744 C-17.05487962 190.05120959 -17.05235222 184.96933171 -17.04986596 179.88745379 C-17.02914578 137.75438283 -16.99393102 95.62133315 -16.94921875 53.48828125 C-18.22063721 53.18664062 -19.49205566 52.885 -20.80200195 52.57421875 C-27.08145714 51.08443482 -30.82043453 47.42631274 -34.5625 42.26171875 C-38.81574544 34.90540129 -39.39462331 27.10835429 -37.28515625 18.90625 C-33.88195085 10.22067796 -27.62133081 5.19280965 -19.24594116 1.52041626 C-12.95334589 -0.44966404 -6.51911356 -0.12001207 0 0 Z " fill="#F3F4F3" transform="translate(91.94921875,14.51171875)"/>
<path d="M0 0 C1.30324219 0.10054687 1.30324219 0.10054687 2.6328125 0.203125 C4.875 0.75 4.875 0.75 6.875 3.75 C8.03784284 8.04712783 8.19557026 12.44887552 8.4375 16.875 C8.48068359 17.57109375 8.52386719 18.2671875 8.56835938 18.984375 C9.17128373 29.51162566 8.7517088 39.70944633 7.5625 50.1875 C7.44455078 51.32509766 7.32660156 52.46269531 7.20507812 53.63476562 C5.9526913 64.89340208 3.55324735 75.25534604 -1.1875 85.5625 C-1.57744141 86.41634277 -1.96738281 87.27018555 -2.36914062 88.14990234 C-8.14723844 100.43410156 -15.63465914 111.0455913 -25.125 120.75 C-25.66785645 121.3171875 -26.21071289 121.884375 -26.77001953 122.46875 C-37.4731482 133.64026783 -48.44001034 143.00733298 -61.640625 151.171875 C-64.59471792 153.04837427 -67.35333686 155.11053087 -70.12890625 157.23828125 C-75.2793186 161.13888708 -80.64184799 164.75781806 -86.00390625 168.359375 C-108.34529493 183.42015814 -124.86514669 201.97524045 -131.17578125 228.84375 C-134.06401741 245.71246673 -127.77999757 264.2628656 -119.125 278.75 C-117.53831855 280.83659478 -115.85255387 282.77565272 -114.125 284.75 C-114.125 285.41 -114.125 286.07 -114.125 286.75 C-113.5475 287.018125 -112.97 287.28625 -112.375 287.5625 C-110.06949957 288.77929189 -108.10443808 290.05333879 -106.125 291.75 C-106.125 292.41 -106.125 293.07 -106.125 293.75 C-105.24328125 294.14058594 -105.24328125 294.14058594 -104.34375 294.5390625 C-101.27086805 296.21616356 -99.214262 298.5103934 -96.80859375 301.01953125 C-95.06108001 302.87151039 -95.06108001 302.87151039 -92.6875 304.8125 C-90.5358998 307.48048425 -90.82257343 309.42330776 -91.125 312.75 C-91.74375 312.8325 -92.3625 312.915 -93 313 C-95.29881462 313.55607909 -95.29881462 313.55607909 -96.3125 315.75 C-96.580625 316.41 -96.84875 317.07 -97.125 317.75 C-98.125 318.75 -98.125 318.75 -100.8125 319.0625 C-110.28983488 318.1684118 -118.64240381 307.03451686 -125.125 300.75 C-126.424375 299.50863281 -126.424375 299.50863281 -127.75 298.2421875 C-138.82811144 286.88712327 -145.34714834 271.96038966 -149.125 256.75 C-149.36863281 255.78835938 -149.61226562 254.82671875 -149.86328125 253.8359375 C-154.70625805 231.49894246 -147.83129352 209.53377899 -135.80664062 190.73071289 C-130.80964932 183.16860983 -125.49567132 176.21785105 -119.125 169.75 C-118.28195313 168.82316406 -117.43890625 167.89632812 -116.5703125 166.94140625 C-108.21193366 157.92116818 -98.3909732 151.4211543 -88.125 144.75 C-71.05021435 133.60041982 -54.4116037 121.39081702 -40.125 106.75 C-39.06539062 105.68652344 -39.06539062 105.68652344 -37.984375 104.6015625 C-20.48346458 86.12837928 -12.64555753 61.83086591 -11.5625 36.75 C-11.51859131 35.79899414 -11.47468262 34.84798828 -11.42944336 33.86816406 C-11.09083186 25.78654784 -11.07417364 17.71923426 -11.24975586 9.6328125 C-11.26727905 8.32183594 -11.26727905 8.32183594 -11.28515625 6.984375 C-11.31041382 5.82760254 -11.31041382 5.82760254 -11.33618164 4.64746094 C-11.125 2.75 -11.125 2.75 -9.125 0.75 C-5.99655593 -0.36052993 -3.28321053 -0.29401885 0 0 Z " fill="#2B918E" transform="translate(316.125,16.25)"/>
<path d="M0 0 C8.55709004 3.32928584 17.01353043 12.38277922 23.4296875 18.9453125 C23.4296875 19.6053125 23.4296875 20.2653125 23.4296875 20.9453125 C24.0896875 20.9453125 24.7496875 20.9453125 25.4296875 20.9453125 C26.88619715 22.91606552 28.19974423 24.86934447 29.4921875 26.9453125 C30.08229614 27.88721436 30.08229614 27.88721436 30.68432617 28.84814453 C31.51788717 30.1902489 32.34626699 31.53558258 33.16992188 32.88378906 C33.9949072 34.23382318 34.8267042 35.57972386 35.66601562 36.92089844 C48.08787288 56.86964351 51.25626537 78.95275424 45.93896484 101.91357422 C43.63220561 111.11628292 40.55142276 119.90309841 35.4296875 127.9453125 C34.7696875 127.9453125 34.1096875 127.9453125 33.4296875 127.9453125 C33.0584375 129.01845703 33.0584375 129.01845703 32.6796875 130.11328125 C31.29105155 133.25940956 29.58504804 135.58342213 27.4296875 138.2578125 C26.7284375 139.14082031 26.0271875 140.02382813 25.3046875 140.93359375 C24.6859375 141.59746094 24.0671875 142.26132812 23.4296875 142.9453125 C22.7696875 142.9453125 22.1096875 142.9453125 21.4296875 142.9453125 C21.0996875 143.9353125 20.7696875 144.9253125 20.4296875 145.9453125 C18.8984375 147.453125 18.8984375 147.453125 16.9296875 149.0703125 C13.7604818 151.74715946 10.82011911 154.53207302 7.9296875 157.5078125 C4.08781633 161.39629216 0.11204048 165.08200313 -4.5703125 167.9453125 C-5.2303125 167.9453125 -5.8903125 167.9453125 -6.5703125 167.9453125 C-6.5703125 168.6053125 -6.5703125 169.2653125 -6.5703125 169.9453125 C-7.96421652 171.16922822 -9.36817256 172.38336178 -10.81738281 173.54125977 C-12.48006017 174.87302265 -14.07958959 176.25427134 -15.6796875 177.66015625 C-20.04432911 181.41117347 -24.63106645 184.83898151 -29.2578125 188.2578125 C-30.09892578 188.89009766 -30.94003906 189.52238281 -31.80664062 190.17382812 C-32.61939453 190.77517578 -33.43214844 191.37652344 -34.26953125 191.99609375 C-35.00002686 192.53919189 -35.73052246 193.08229004 -36.4831543 193.6418457 C-38.54702369 194.93076823 -40.19184657 195.51161395 -42.5703125 195.9453125 C-42.5703125 196.6053125 -42.5703125 197.2653125 -42.5703125 197.9453125 C-44.00557542 199.02700334 -45.49669446 200.03490089 -47.0078125 201.0078125 C-53.42757805 205.36375584 -59.24607501 210.45895626 -63.5703125 216.9453125 C-64.2303125 216.9453125 -64.8903125 216.9453125 -65.5703125 216.9453125 C-65.9003125 218.2653125 -66.2303125 219.5853125 -66.5703125 220.9453125 C-67.2303125 220.9453125 -67.8903125 220.9453125 -68.5703125 220.9453125 C-68.84359375 221.68523437 -69.116875 222.42515625 -69.3984375 223.1875 C-70.49636908 225.77129898 -71.7056657 227.78723665 -73.3203125 230.0703125 C-76.24309338 234.35468155 -78.77371672 238.76302049 -81.1953125 243.34765625 C-81.99488122 244.85820511 -82.81732633 246.3578599 -83.6953125 247.82421875 C-93.29137185 264.579838 -93.86223304 289.09574883 -94.5703125 307.9453125 C-97.04955051 307.97216345 -99.5285009 307.99207797 -102.0078125 308.0078125 C-102.71486328 308.01619141 -103.42191406 308.02457031 -104.15039062 308.03320312 C-105.95724809 308.04184838 -107.76418853 307.99751261 -109.5703125 307.9453125 C-112.90326704 304.61235796 -111.87817301 293.94056759 -111.88720703 289.56860352 C-111.58905707 272.0605755 -109.19494188 253.82702899 -101.5703125 237.9453125 C-101.26577148 237.30851563 -100.96123047 236.67171875 -100.64746094 236.015625 C-96.44445174 227.36161624 -91.52250356 219.52290958 -85.5703125 211.9453125 C-84.94125 211.11257813 -84.3121875 210.27984375 -83.6640625 209.421875 C-71.78967146 194.21352032 -56.70251083 178.2379501 -38.859375 170.171875 C-35.70336171 168.4807689 -32.8441826 166.41021384 -29.9453125 164.3203125 C-29.32358154 163.87373291 -28.70185059 163.42715332 -28.0612793 162.96704102 C-22.75567532 159.12962868 -17.62696928 155.10534164 -12.5703125 150.9453125 C-11.61898437 150.16800781 -10.66765625 149.39070312 -9.6875 148.58984375 C-7.82772539 147.06978797 -5.96946991 145.54787013 -4.11328125 144.0234375 C-2.4655016 142.67686488 -0.78925297 141.36411593 0.91796875 140.09375 C4.00172688 137.45600977 6.34773891 134.53404823 8.8046875 131.3203125 C9.28365479 130.69858154 9.76262207 130.07685059 10.25610352 129.4362793 C11.21339307 128.1871155 12.16701311 126.93512988 13.11669922 125.68017578 C14.25455044 124.17672268 15.40541386 122.68313437 16.55859375 121.19140625 C27.53400226 106.42319999 29.97069616 87.40016568 27.7421875 69.5078125 C25.46484691 56.34635447 19.64740973 45.47145975 11.18359375 35.2265625 C9.4296875 32.9453125 9.4296875 32.9453125 9.4296875 30.9453125 C7.9446875 30.4503125 7.9446875 30.4503125 6.4296875 29.9453125 C4.67578125 28.1328125 4.67578125 28.1328125 2.8671875 25.9453125 C0.50758423 22.99572071 0.50758423 22.99572071 -2.5703125 20.9453125 C-2.5703125 20.2853125 -2.5703125 19.6253125 -2.5703125 18.9453125 C-3.2509375 18.7184375 -3.9315625 18.4915625 -4.6328125 18.2578125 C-8.36645574 16.58958893 -11.29194671 14.38801642 -14.5703125 11.9453125 C-14.26300041 8.8512385 -13.5611489 7.93674853 -11.2421875 5.76953125 C-9.79585937 4.71185547 -9.79585937 4.71185547 -8.3203125 3.6328125 C-6.88945312 2.55580078 -6.88945312 2.55580078 -5.4296875 1.45703125 C-2.5703125 -0.0546875 -2.5703125 -0.0546875 0 0 Z " fill="#F3F3F3" transform="translate(267.5703125,173.0546875)"/>
<path d="M0 0 C36.87483043 -0.00143314 73.74873438 0.12329336 110.62306912 0.30709556 C120.88947389 0.35821141 131.15589102 0.4026958 141.42234516 0.44263649 C154.95758579 0.49530448 168.49279597 0.55257552 182.02799892 0.61425591 C187.09568555 0.63731153 192.16337488 0.65873267 197.23107433 0.67876244 C203.12675143 0.70235699 209.02238863 0.73063742 214.91802692 0.76245117 C217.05687509 0.7732921 219.19573163 0.78261629 221.33459377 0.79021454 C231.88195765 0.82866717 242.38761419 0.95122737 252.9130916 1.68327081 C257.3734891 1.98280714 261.72185498 1.93525506 266.18381977 1.68775368 C271.41795874 1.63488359 271.41795874 1.63488359 274.68381977 4.68775368 C275.88721238 8.23107636 276.32923211 9.60168493 274.80881977 13.00025368 C269.82596948 17.71376071 266.08492305 19.24970033 259.27105522 19.25472927 C258.28374564 19.25953899 258.28374564 19.25953899 257.27649042 19.26444587 C255.06139469 19.27277579 252.84656724 19.26681125 250.63146687 19.26095009 C249.03115375 19.26396941 247.43084208 19.26785779 245.83053297 19.27254266 C241.42538805 19.28285965 237.02032418 19.28063145 232.61517251 19.27636206 C227.86730921 19.27390154 223.11946578 19.28290058 218.37160969 19.29039955 C209.06726884 19.30316725 199.76295683 19.30493768 190.45860869 19.30259929 C182.89819744 19.30081833 175.33779496 19.30256099 167.77738476 19.30682373 C166.70253017 19.30741892 165.62767558 19.30801411 164.52024965 19.30862733 C162.33688844 19.30983905 160.15352723 19.31105318 157.97016602 19.31226971 C137.48171443 19.32315316 116.99327929 19.32097891 96.50482678 19.31488486 C77.74904492 19.3097146 58.99331499 19.3209726 40.23754341 19.33998308 C20.99214652 19.35934074 1.74677421 19.36762115 -17.49863249 19.36385983 C-28.30869668 19.36194468 -39.11871666 19.36446584 -49.92877293 19.37857437 C-59.13107382 19.39046274 -68.3333033 19.39192171 -77.53560513 19.3797842 C-82.23289187 19.37387767 -86.93004783 19.37284488 -91.62732601 19.38478661 C-95.92481099 19.39558523 -100.22205504 19.39261436 -104.51952846 19.37852492 C-106.07668795 19.3758613 -107.63386596 19.37829634 -109.19100737 19.38626079 C-111.30348969 19.39631826 -113.41512664 19.38798757 -115.52757454 19.37498379 C-116.70215955 19.3750388 -117.87674456 19.37509382 -119.08692306 19.3751505 C-122.53043773 18.95928202 -124.38398612 17.98693669 -127.19118023 16.00025368 C-127.78930523 15.58775368 -128.38743023 15.17525368 -129.00368023 14.75025368 C-131.02066665 11.77785264 -130.67029202 9.47381416 -130.19118023 6.00025368 C-128.19500241 3.22240933 -126.60049893 1.32337329 -123.16699207 0.53616071 C-120.6202101 0.33969349 -118.11663565 0.31234652 -115.56225872 0.33487892 C-114.58555027 0.32380596 -113.60884182 0.31273299 -112.60253614 0.30132449 C-109.32375682 0.27039731 -106.04601546 0.27521779 -102.76710796 0.28003883 C-100.41726976 0.26568861 -98.0674435 0.24925244 -95.71763325 0.23088646 C-89.9741447 0.19202337 -84.23094079 0.17681012 -78.48732983 0.17241403 C-73.76029801 0.16808481 -69.03341895 0.15239306 -64.30644321 0.12920952 C-63.62856958 0.12589321 -62.95069594 0.1225769 -62.25228068 0.11916009 C-60.87378848 0.11238347 -59.49529634 0.1055938 -58.11680426 0.09879126 C-40.85342688 0.01579478 -23.59014037 -0.00088545 -6.32658899 0.00014806 C-4.21772596 0.00025236 -2.10886303 0.00014729 0 0 Z " fill="#2B9390" transform="translate(130.191180229187,490.99974632263184)"/>
<path d="M0 0 C14.04555091 -0.11624151 27.9853975 0.05317481 42 1 C41.93433838 1.95994873 41.86867676 2.91989746 41.80102539 3.90893555 C41.13753677 13.87312271 40.69260231 23.82932924 40.4375 33.8125 C40.41698578 34.60783142 40.39647156 35.40316284 40.37533569 36.22259521 C39.99146218 51.72127629 39.86493535 67.22213931 39.82376099 82.72518921 C39.81635021 85.29162733 39.80575537 87.85805856 39.79171753 90.42446899 C39.72278819 104.29334713 39.98376292 117.93393143 41.5690918 131.72021484 C42.39426296 139.15919297 42.43484297 144.79121984 38 151 C32.93430476 155.96538444 27.21478543 158 20.125 158 C13.28089461 156.83278823 7.78156235 152.48351714 3.5625 147.125 C-4.26894734 133.49023043 -1.27419358 112.71104766 -1.23046875 97.63671875 C-1.22826105 94.90908267 -1.2287736 92.18144844 -1.2290802 89.45381165 C-1.22815036 83.77134867 -1.21955054 78.08893985 -1.20581055 72.40649414 C-1.18999354 65.84083196 -1.18481619 59.2752285 -1.1855461 52.70954865 C-1.18622085 45.69096657 -1.17929559 38.67240701 -1.1700995 31.65383172 C-1.16797042 29.63830177 -1.16725869 27.62277546 -1.16686058 25.60724449 C-1.16470112 21.86402794 -1.15596844 18.12088613 -1.14526367 14.37768555 C-1.14571686 13.26346725 -1.14617004 12.14924896 -1.14663696 11.00126648 C-1.14023949 9.47735291 -1.14023949 9.47735291 -1.13371277 7.9226532 C-1.13203692 7.03915538 -1.13036108 6.15565756 -1.12863445 5.24538708 C-1 3 -1 3 0 0 Z " fill="#2A9390" transform="translate(104,268)"/>
<path d="M0 0 C2.64590014 -0.02684679 5.29153096 -0.04676357 7.9375 -0.0625 C8.69224609 -0.07087891 9.44699219 -0.07925781 10.22460938 -0.08789062 C12.14994313 -0.09652441 14.07535581 -0.05224333 16 0 C17 1 17 1 17.06591797 4.31616211 C17.04526337 5.80328231 17.02034483 7.29034669 16.9921875 8.77734375 C16.9746176 10.42382139 16.95771476 12.07030626 16.94140625 13.71679688 C16.91092073 16.29862987 16.87605502 18.88009018 16.82861328 21.46166992 C16.32446634 50.43312559 22.96150149 76.90550281 41 100 C41.77632114 101.10644995 42.54824836 102.21599216 43.31640625 103.328125 C50.56277805 113.52337147 59.60976698 120.1715931 70 127 C69.4674855 131.00787229 68.41108236 133.21868009 65.75 136.25 C65.16734375 136.93578125 64.5846875 137.6215625 63.984375 138.328125 C61.51941682 140.40490079 60.23446866 140.98558186 57 141 C54.16796875 139.33984375 54.16796875 139.33984375 51.1875 136.9375 C50.12523563 136.09345336 49.06273529 135.24970362 48 134.40625 C47.01 133.6121875 46.02 132.818125 45 132 C43.56661986 130.9733899 42.12976381 129.95159174 40.6875 128.9375 C37.26504941 126.36714102 34.57233175 123.46363 31.83984375 120.1796875 C30.56345536 118.6675331 29.23879541 117.19533806 27.87890625 115.7578125 C3.58186673 90.0711676 -2.8600872 56.45926999 -2.16796875 22.04296875 C-1.60601122 3.21202244 -1.60601122 3.21202244 0 0 Z " fill="#F0F0EF" transform="translate(158,16)"/>
<path d="M0 0 C7.26928238 3.68888957 14.45597695 10.00478757 19.6171875 16.328125 C19.6171875 16.988125 19.6171875 17.648125 19.6171875 18.328125 C20.2771875 18.328125 20.9371875 18.328125 21.6171875 18.328125 C26.6171875 23.80431548 26.6171875 23.80431548 26.6171875 26.328125 C27.6071875 26.658125 28.5971875 26.988125 29.6171875 27.328125 C29.6171875 27.988125 29.6171875 28.648125 29.6171875 29.328125 C30.2771875 29.328125 30.9371875 29.328125 31.6171875 29.328125 C32.2771875 30.978125 32.9371875 32.628125 33.6171875 34.328125 C34.2771875 34.328125 34.9371875 34.328125 35.6171875 34.328125 C38.57386442 39.59419469 41.50909016 44.87157731 44.42089844 50.16259766 C45.34296168 51.83172031 46.27811588 53.49361577 47.21875 55.15234375 C53.28000971 66.355898 56.78424876 79.87643902 56.75 92.55078125 C56.75095673 93.33327744 56.75191345 94.11577362 56.75289917 94.92198181 C56.75357744 96.57014039 56.75174786 98.21830169 56.74755859 99.86645508 C56.74219811 102.38564048 56.74751925 104.90464818 56.75390625 107.42382812 C56.75324555 109.02864623 56.75196455 110.63346422 56.75 112.23828125 C56.75202423 112.98940689 56.75404846 113.74053253 56.75613403 114.51441956 C56.74040643 118.0285339 56.47671835 120.89000158 55.6171875 124.328125 C50.6671875 124.328125 45.7171875 124.328125 40.6171875 124.328125 C39.22048896 121.53472792 39.46139655 119.1480759 39.3671875 116.015625 C38.97298303 107.7940653 37.68371473 99.74783718 36.3046875 91.640625 C36.10391602 90.43043701 35.90314453 89.22024902 35.69628906 87.97338867 C33.72651601 76.73270317 31.00857563 65.88405382 25.4921875 55.828125 C25.10603271 55.11454834 24.71987793 54.40097168 24.32202148 53.66577148 C16.34506355 39.33670255 5.41197367 27.11586055 -8.1809082 17.90161133 C-11.05883853 15.84569775 -12.29415807 14.60586269 -13.3828125 11.1953125 C-13.3828125 8.328125 -13.3828125 8.328125 -11.3203125 5.703125 C-10.3509375 4.919375 -9.3815625 4.135625 -8.3828125 3.328125 C-7.3928125 2.52375 -6.4028125 1.719375 -5.3828125 0.890625 C-2.3828125 -0.671875 -2.3828125 -0.671875 0 0 Z " fill="#2A928F" transform="translate(267.3828125,355.671875)"/>
<path d="M0 0 C1.1697553 0.00276538 1.1697553 0.00276538 2.36314201 0.00558662 C3.7051165 0.00146263 3.7051165 0.00146263 5.07420158 -0.00274467 C6.05818932 0.00444588 7.04217705 0.01163643 8.05598259 0.01904488 C9.09015312 0.01875282 10.12432365 0.01846077 11.18983269 0.01815987 C14.62039794 0.01955721 18.05074808 0.03513748 21.48127556 0.05078316 C23.8549621 0.05451185 26.22865017 0.0573595 28.60233879 0.0593586 C34.85939065 0.06700638 41.11635012 0.0866647 47.3733654 0.10876656 C53.75437482 0.12920035 60.13539912 0.13835503 66.51643181 0.14843941 C79.04381505 0.1699095 91.57113415 0.20367648 104.09846306 0.24609566 C106.01798507 3.76835274 106.26047592 5.84854901 105.84846306 9.87109566 C105.76080681 10.83273628 105.67315056 11.79437691 105.58283806 12.78515816 C105.09846306 15.24609566 105.09846306 15.24609566 103.09846306 17.24609566 C101.25495148 17.49777794 101.25495148 17.49777794 98.97459221 17.50006294 C98.11096565 17.50570259 97.2473391 17.51134224 96.35754204 17.51715279 C94.93306503 17.51108009 94.93306503 17.51108009 93.47981071 17.50488472 C92.48132607 17.50838936 91.48284142 17.511894 90.45409966 17.51550484 C87.14017172 17.52433601 83.82645582 17.51846718 80.51252556 17.51172066 C78.21568066 17.51306712 75.91883603 17.5150075 73.62199211 17.517519 C68.80162157 17.52047232 63.98132502 17.51616671 59.16096306 17.50683784 C52.9779024 17.49545605 46.7950156 17.50199348 40.61196136 17.51398277 C35.86624146 17.52120667 31.12056283 17.51891077 26.37484169 17.51372719 C24.09503852 17.5123915 21.81523163 17.51403559 19.53543282 17.51868629 C16.34882234 17.52375872 13.16249391 17.51603039 9.97590446 17.50488472 C9.03030159 17.50893318 8.08469872 17.51298164 7.11044121 17.51715279 C6.241175 17.51151314 5.3719088 17.50587349 4.47630119 17.50006294 C3.34639228 17.49893187 3.34639228 17.49893187 2.19365692 17.49777794 C-0.19199394 17.21120491 -1.82638786 16.42903584 -3.90153694 15.24609566 C-3.95540323 13.1213699 -3.99426765 10.99625913 -4.02653694 8.87109566 C-4.04974007 7.68773628 -4.07294319 6.50437691 -4.09684944 5.28515816 C-3.8825318 1.95037562 -3.52399276 0.45607282 0 0 Z " fill="#FBFAF9" transform="translate(189.90153694152832,30.753904342651367)"/>
<path d="M0 0 C0.87630569 -0.00845947 1.75261139 -0.01691895 2.6554718 -0.02563477 C3.61402069 -0.01956207 4.57256958 -0.01348938 5.56016541 -0.00723267 C6.57176224 -0.01248962 7.58335907 -0.01774658 8.62561035 -0.02316284 C11.97626592 -0.03638911 15.3264482 -0.02761591 18.67710876 -0.01748657 C20.99973645 -0.01950639 23.32236351 -0.02241705 25.64498901 -0.02618408 C30.51488782 -0.03061088 35.38462168 -0.02416423 40.25450134 -0.01016235 C46.50842683 0.00693906 52.76196637 -0.00291572 59.01587772 -0.02087975 C63.81214324 -0.03169979 68.60831665 -0.02827957 73.40458488 -0.02049637 C75.71116112 -0.01848993 78.01774562 -0.0209691 80.32431221 -0.02793503 C83.54247958 -0.03552121 86.76001414 -0.02398527 89.97813416 -0.00723267 C91.41899384 -0.01634171 91.41899384 -0.01634171 92.88896179 -0.02563477 C94.1991906 -0.01294556 94.1991906 -0.01294556 95.53588867 0 C96.29708039 0.00113108 97.05827211 0.00226215 97.84253025 0.00342751 C99.70445251 0.38095093 99.70445251 0.38095093 101.70445251 3.38095093 C102.04039001 5.46688843 102.04039001 5.46688843 102.07945251 7.75595093 C102.10781189 8.5061853 102.13617126 9.25641968 102.16539001 10.02938843 C101.48006601 13.52570243 100.32350445 14.94420793 97.70445251 17.38095093 C94.52123958 18.12688203 91.39059038 18.03314498 88.13414001 17.98031616 C86.67986603 17.98623024 86.67986603 17.98623024 85.19621277 17.99226379 C81.99010117 17.99897896 78.78541182 17.96979946 75.57945251 17.93954468 C73.35273006 17.93529492 71.12600319 17.93296604 68.89927673 17.93247986 C64.23191766 17.92631137 59.5650379 17.90359619 54.89781189 17.86801147 C48.91207231 17.82273895 42.92676716 17.80798572 36.94087219 17.80427456 C32.34267381 17.79984754 27.74456681 17.78454642 23.14640808 17.76539803 C20.93918104 17.75651221 18.73194423 17.74978396 16.52470398 17.74523735 C13.44122402 17.73620309 10.35813833 17.71381888 7.27476501 17.68734741 C6.36035645 17.68668274 5.44594788 17.68601807 4.50382996 17.68533325 C3.66269653 17.67535812 2.82156311 17.665383 1.9549408 17.65510559 C0.86211288 17.64812983 0.86211288 17.64812983 -0.25279236 17.64101315 C-2.67328216 17.3328617 -4.23269132 16.67941679 -6.29554749 15.38095093 C-8.46795355 12.12234183 -8.53118906 11.5604429 -8.10804749 7.88095093 C-8.0319928 7.10751343 -7.95593811 6.33407593 -7.87757874 5.53720093 C-6.70626423 1.19783444 -4.30723244 0.00639707 0 0 Z " fill="#F5FCFB" transform="translate(194.29554748535156,456.6190490722656)"/>
<path d="M0 0 C1.32 0 2.64 0 4 0 C4.23581284 1.23139709 4.47162567 2.46279419 4.71458435 3.73150635 C6.93523944 15.32680985 9.15707282 26.92188702 11.38006496 38.51674271 C12.52293287 44.47800771 13.66538307 50.43935213 14.80688477 56.40087891 C15.90816493 62.15226484 17.01053432 67.90344101 18.11366463 73.65447235 C18.5346883 75.8504668 18.95531703 78.04653701 19.37554741 80.24268341 C19.96343615 83.31465869 20.55271864 86.38636352 21.14233398 89.45800781 C21.31640274 90.36934982 21.4904715 91.28069183 21.66981506 92.21965027 C21.83105865 93.05815018 21.99230225 93.89665009 22.15843201 94.76055908 C22.29762275 95.48693195 22.43681349 96.21330482 22.58022213 96.961689 C22.99816466 98.99108816 23.4826867 100.99384748 24 103 C24.22106415 101.82759766 24.4421283 100.65519531 24.66989136 99.44726562 C26.75649797 88.38274837 28.84559118 77.31870312 30.93710136 66.25511169 C32.01221014 60.56760682 33.08645116 54.87994095 34.15869141 49.19189453 C35.19405644 43.69964171 36.23172392 38.20782842 37.27096939 32.71630859 C37.66648005 30.62418006 38.0611697 28.53189613 38.45501328 26.43945312 C39.00801861 23.50218493 39.5639764 20.56548957 40.12060547 17.62890625 C40.28172821 16.7693483 40.44285095 15.90979034 40.6088562 15.02418518 C41.57175633 9.96414877 42.70515788 4.98576229 44 0 C45.32 0 46.64 0 48 0 C48.13257202 0.70044434 48.26514404 1.40088867 48.4017334 2.12255859 C49.6922176 8.93877902 50.98477836 15.75460226 52.27931976 22.5700531 C52.94375251 26.06848072 53.60755278 29.56702504 54.26953125 33.06591797 C58.68688382 56.40959345 63.30666684 79.71032123 68 103 C68.33159622 101.26351952 68.33159622 101.26351952 68.66989136 99.49195862 C70.75755253 88.56039467 72.84663729 77.6291036 74.93710136 66.69807529 C76.01167622 61.07888181 77.08575649 55.45959475 78.15869141 49.84008789 C79.1949385 44.41283401 80.23250442 38.98583375 81.27096939 33.55900383 C81.66612451 31.49275553 82.06081143 29.42641764 82.45501328 27.35998726 C83.00895596 24.45662821 83.56459124 21.55359771 84.12060547 18.65063477 C84.28172821 17.80402283 84.44285095 16.95741089 84.6088562 16.08514404 C85.64269893 10.69949997 86.78867108 5.34860841 88 0 C89.32 0 90.64 0 92 0 C90.2598273 11.10765789 88.08186377 22.12904565 85.9375 33.1640625 C85.54145761 35.20801359 85.1455452 37.25198988 84.74975586 39.29598999 C83.71294813 44.64838422 82.6742232 50.00040467 81.63513184 55.35235596 C80.78959194 59.7091697 79.94544291 64.06625237 79.10136414 68.42334938 C78.0888907 73.64951374 77.07577711 78.87555391 76.0625 84.1015625 C75.87154755 85.08651325 75.68059509 86.071464 75.4838562 87.08626175 C74.93879581 89.89692933 74.39330188 92.70751239 73.84765625 95.51806641 C73.6896756 96.33287979 73.53169495 97.14769318 73.368927 97.98719788 C72.26648054 103.66228408 71.13881612 109.33210424 70 115 C68.35 115 66.7 115 65 115 C64.8863208 114.32090576 64.7726416 113.64181152 64.65551758 112.94213867 C60.83831789 90.35080923 56.50329459 67.86279982 52.125 45.375 C51.97468449 44.60293087 51.82436897 43.83086174 51.66949844 43.03539658 C49.7845265 33.35597984 47.89452942 23.67755075 46 14 C41.65297036 34.39929498 37.67476347 54.86732517 33.70324707 75.34222412 C32.83264841 79.82864053 31.96017965 84.31469325 31.08789062 88.80078125 C29.39014603 97.53350883 27.69439837 106.26662254 26 115 C24.68 115 23.36 115 22 115 C19.24068793 103.63734789 17.02420934 92.18063273 14.8046875 80.703125 C14.40790506 78.65816363 14.01102215 76.61322176 13.61404419 74.56829834 C12.78717081 70.30576618 11.96208655 66.04289242 11.13818359 61.77978516 C10.08534044 56.33329552 9.0271019 50.88786981 7.96742058 45.44270706 C7.14820342 41.22916555 6.332301 37.01498719 5.5173378 32.80062103 C5.12854967 30.79267441 4.73864147 28.78494432 4.34756088 26.77744293 C3.80102525 23.96979365 3.25908883 21.16129276 2.71826172 18.35253906 C2.55825684 17.53570145 2.39825195 16.71886383 2.23339844 15.87727356 C1.22326463 10.59782584 0.53634745 5.34896627 0 0 Z " fill="#FEFEFE" transform="translate(64,530)"/>
<path d="M0 0 C2.55322514 -0.28494945 4.85998686 -0.37112623 7.4140625 -0.328125 C8.1922081 -0.3266597 8.9703537 -0.3251944 9.77207947 -0.32368469 C12.39004354 -0.31427187 15.0072275 -0.28248148 17.625 -0.25 C19.46345429 -0.23730028 21.30191514 -0.22552071 23.14038086 -0.21459961 C29.42730456 -0.16941587 35.7135154 -0.08545082 42 0 C44.48681626 0.03175011 46.97363267 0.063488 49.46044922 0.09521484 C57.16135217 0.19630867 64.86193036 0.31380103 72.5625 0.4375 C74.4538266 0.46656433 74.4538266 0.46656433 76.38336182 0.49621582 C79.96533332 0.55311981 83.54710142 0.61709987 87.12890625 0.68359375 C88.21550034 0.70032639 89.30209442 0.71705902 90.4216156 0.73429871 C91.40855911 0.75422379 92.39550262 0.77414886 93.41235352 0.79467773 C94.27828629 0.81022202 95.14421906 0.8257663 96.03639221 0.84178162 C98 1 98 1 99 2 C99.04753527 6.51585054 98.27728021 10.35301284 96.5 14.5 C92.33225012 18.66774988 86.59893242 18.0533809 80.91424561 18.05778503 C79.51399313 18.03184904 78.11384735 17.99955406 76.71386719 17.96166992 C75.94029877 17.94552139 75.16673035 17.92937286 74.36972046 17.91273499 C71.84525194 17.85823878 69.32111001 17.794825 66.796875 17.73046875 C65.02810267 17.6887288 63.25932404 17.64725473 61.49053955 17.60603333 C57.79891584 17.51846251 54.10744577 17.4261797 50.41601562 17.33081055 C45.68970646 17.20930137 40.96319351 17.10195126 36.23646164 16.9983778 C32.59030084 16.916529 28.94439244 16.82603789 25.29850006 16.73305702 C23.55548357 16.68986474 21.8123913 16.64962366 20.06923676 16.61241722 C17.63535171 16.55940617 15.20206222 16.49446722 12.76855469 16.42651367 C12.05261139 16.4134317 11.33666809 16.40034973 10.59902954 16.38687134 C5.49967935 16.22614761 1.67645846 15.67645846 -2 12 C-2.265625 9.94140625 -2.265625 9.94140625 -2.25 7.5625 C-2.25515625 6.78003906 -2.2603125 5.99757813 -2.265625 5.19140625 C-2 3 -2 3 0 0 Z " fill="#2B928F" transform="translate(193,73)"/>
<path d="M0 0 C3.84061976 8.3491734 4.14945744 15.76541368 4.1328125 24.88671875 C4.13424759 26.64239922 4.13424759 26.64239922 4.13571167 28.43354797 C4.13639202 30.92078708 4.13454781 33.40802798 4.13037109 35.89526367 C4.12512189 39.60144348 4.13026762 43.30749635 4.13671875 47.01367188 C4.14051296 54.34317253 4.08761781 61.67104921 4 69 C3.98674683 70.24606018 3.97349365 71.49212036 3.95983887 72.77593994 C3.91047579 76.44135686 3.83138268 80.10488834 3.7421875 83.76953125 C3.72858185 84.86851242 3.7149762 85.96749359 3.70095825 87.09977722 C3.49997822 93.68671396 2.64431622 99.37025429 -1 105 C-3.359375 106.31640625 -3.359375 106.31640625 -5.75 106.5625 C-6.94882813 106.71912109 -6.94882813 106.71912109 -8.171875 106.87890625 C-9.07679688 106.93884766 -9.07679688 106.93884766 -10 107 C-13.41038842 85.44920955 -12.12511649 63.01453274 -12.06866455 41.25866699 C-12.05827412 36.819585 -12.0538339 32.380497 -12.04882812 27.94140625 C-12.03823272 19.29425473 -12.02125799 10.64713187 -12 2 C-7.79038695 0.15329583 -4.61179928 -0.18085487 0 0 Z " fill="#F0EFEE" transform="translate(167,113)"/>
<path d="M0 0 C5.77822876 0.83627319 5.77822876 0.83627319 7.77416992 2.30981445 C12.09487861 8.26724649 12.64332894 16.2000778 13.1875 23.3125 C13.26718018 24.31265137 13.34686035 25.31280273 13.42895508 26.34326172 C14.32934637 38.89458096 14.21256519 51.42627827 14 64 C13.9856189 64.88528381 13.97123779 65.77056763 13.9564209 66.68267822 C13.84013361 73.7679394 13.70562303 80.85273429 13.5625 87.9375 C13.53329971 89.44863373 13.53329971 89.44863373 13.50350952 90.99029541 C13.44614172 93.87777855 13.38232495 96.76504457 13.31640625 99.65234375 C13.29131485 100.9568322 13.29131485 100.9568322 13.26571655 102.28767395 C13.06335396 110.52426094 13.06335396 110.52426094 12 114 C9.47524538 115.26237731 7.68799534 115.09856404 4.875 115.0625 C3.50988281 115.04896484 3.50988281 115.04896484 2.1171875 115.03515625 C1.06917969 115.01775391 1.06917969 115.01775391 0 115 C-0.80459674 109.3562423 -1.14426911 103.90370433 -1.12939453 98.20751953 C-1.13114685 97.36719681 -1.13289917 96.52687408 -1.13470459 95.66108704 C-1.13908009 92.90164072 -1.13619762 90.14225939 -1.1328125 87.3828125 C-1.1334874 85.44196562 -1.13445898 83.50111881 -1.13571167 81.56027222 C-1.13718337 77.49362381 -1.13505339 73.4269974 -1.13037109 69.36035156 C-1.12471227 64.19899779 -1.12793161 59.03769647 -1.13394356 53.87634468 C-1.13759617 49.8643862 -1.13638862 45.85243969 -1.13381577 41.8404808 C-1.13315742 39.94067249 -1.1339358 38.04086302 -1.13629532 36.14105606 C-1.14799776 24.05792525 -0.80633274 12.05705956 0 0 Z " fill="#F1F4F3" transform="translate(157,280)"/>
<path d="M0 0 C1.24682053 -0.01226624 1.24682053 -0.01226624 2.51882935 -0.02478027 C5.27052085 -0.04960084 8.02216096 -0.06613986 10.77392578 -0.08056641 C11.71373417 -0.08589008 12.65354256 -0.09121376 13.62182999 -0.09669876 C18.59423253 -0.12341314 23.56661008 -0.14279534 28.5390625 -0.15722656 C33.67633393 -0.17388952 38.81296574 -0.21868588 43.94999504 -0.26959801 C47.89967597 -0.30323411 51.84920416 -0.31479984 55.79901505 -0.32045364 C57.69287136 -0.3271739 59.58671735 -0.34241604 61.48043442 -0.36634445 C64.13071862 -0.39792765 66.7792649 -0.39804369 69.4296875 -0.390625 C70.6018985 -0.415233 70.6018985 -0.415233 71.79779053 -0.44033813 C75.8117601 -0.39435604 77.63701987 0.02990676 80.83108521 2.5418396 C82.84423828 5.19287109 82.84423828 5.19287109 83.46923828 8.19287109 C82.58387021 12.44263782 81.43705956 13.72720943 77.84423828 16.19287109 C69.62546503 17.77895411 60.91814671 17.33898491 52.58642578 17.32568359 C51.23039737 17.32635998 49.87436907 17.32733277 48.51834106 17.32858276 C45.68946162 17.33004702 42.86061399 17.32794854 40.03173828 17.32324219 C36.45828588 17.31757791 32.88490837 17.3209166 29.31145859 17.32666397 C-5.10011132 17.37425384 -5.10011132 17.37425384 -13.15576172 16.19287109 C-15.15576172 14.19287109 -15.15576172 14.19287109 -15.53076172 10.38037109 C-15.45383643 7.12583955 -15.13512236 6.1594211 -13.34326172 3.25537109 C-9.38771816 -0.4741414 -5.13249875 0.02783394 0 0 Z " fill="#2B938F" transform="translate(208.15576171875,419.80712890625)"/>
<path d="M0 0 C1.48194695 0.00893741 2.96384942 0.02924488 4.44554138 0.05815125 C5.2537735 0.06600647 6.06200562 0.07386169 6.89472961 0.08195496 C9.5739144 0.11059924 12.25264738 0.15383642 14.93162537 0.19755554 C16.78724251 0.22117938 18.64286934 0.24405301 20.49850464 0.26620483 C24.38998187 0.31478363 28.28128311 0.37016066 32.17259216 0.43070984 C37.17200933 0.5082849 42.17148477 0.57262842 47.17114353 0.63236713 C51.00319168 0.67899124 54.8351554 0.73077722 58.66711235 0.784338 C60.51117803 0.80983097 62.35526071 0.83412287 64.19935799 0.85721779 C66.77110631 0.89055953 69.34266866 0.93040292 71.91429138 0.97221375 C73.06835228 0.98556007 73.06835228 0.98556007 74.24572754 0.99917603 C79.50073408 1.09478926 79.50073408 1.09478926 80.61521912 2.20927429 C80.74059653 4.35235326 80.79096276 6.50006315 80.80271912 8.64677429 C80.8168988 9.82111023 80.83107849 10.99544617 80.84568787 12.20536804 C80.61521912 15.20927429 80.61521912 15.20927429 78.61521912 17.20927429 C75.90438253 17.39730382 73.29654638 17.46107602 70.58543396 17.43632507 C69.75608841 17.43661713 68.92674286 17.43690918 68.07226562 17.43721008 C65.3234572 17.43581368 62.57491785 17.42023797 59.82615662 17.40458679 C57.92329557 17.40085776 56.02043262 17.39801027 54.11756897 17.39601135 C49.10336529 17.38836621 44.08927702 17.36871018 39.07511902 17.34660339 C33.96089744 17.32616391 28.84665725 17.3170137 23.73240662 17.30693054 C13.69329334 17.2854651 3.65426582 17.25131856 -6.38478088 17.20927429 C-6.57523705 15.60590789 -6.7572079 14.00153195 -6.93556213 12.39677429 C-7.08892029 11.05679382 -7.08892029 11.05679382 -7.24537659 9.68974304 C-7.41365677 6.69547562 -6.91473837 4.7860448 -5.38478088 2.20927429 C-3.38478088 0.20927429 -3.38478088 0.20927429 0 0 Z " fill="#F8F4F4" transform="translate(203.38478088378906,242.7907257080078)"/>
<path d="M0 0 C1.97132904 -0.0049926 1.97132904 -0.0049926 3.98248291 -0.01008606 C6.73881861 -0.01601263 9.49512324 -0.01793235 12.25146484 -0.01733398 C15.76014697 -0.01723186 19.26862905 -0.03096478 22.77726364 -0.04810619 C26.16401177 -0.06196225 29.55072396 -0.0613157 32.9375 -0.0625 C34.18456726 -0.06968552 35.43163452 -0.07687103 36.7164917 -0.08427429 C43.34216264 -0.06697895 49.35158089 0.18877488 55.703125 2.16796875 C58.38239841 6.18687887 57.85913748 8.40958798 57.703125 13.16796875 C54.64446343 14.69729953 51.44467876 14.32406855 48.08813477 14.32910156 C46.90986618 14.33654892 46.90986618 14.33654892 45.70779419 14.34414673 C43.10336438 14.35877934 40.49899545 14.36557162 37.89453125 14.37109375 C36.08853656 14.37684363 34.28254189 14.38260138 32.47654724 14.3883667 C28.68773107 14.39887935 24.89893613 14.40472051 21.11010742 14.40820312 C16.2496694 14.41369308 11.38951078 14.4377306 6.5291605 14.46617508 C2.79830599 14.48477524 -0.9324808 14.49000562 -4.66337776 14.491539 C-6.45558261 14.49457123 -8.24778611 14.50261889 -10.0399456 14.51572418 C-12.54434521 14.53273266 -15.0480567 14.53091759 -17.55249023 14.52441406 C-18.29597214 14.53362885 -19.03945404 14.54284363 -19.8054657 14.55233765 C-24.82459316 14.51139872 -24.82459316 14.51139872 -27.21839905 12.77069092 C-29.44179703 9.46650112 -29.54501563 7.1382188 -29.296875 3.16796875 C-23.59684537 -2.53206088 -7.72200815 0.00693579 0 0 Z " fill="#F6FBFA" transform="translate(33.296875,460.83203125)"/>
<path d="M0 0 C30.9650655 0 30.9650655 0 36.8046875 5.7890625 C42.99500792 16.40749534 43.36408673 28.82298906 40.6953125 40.64453125 C39.04098506 46.2487978 36.64055784 51.28755372 32 55 C31.34 55 30.68 55 30 55 C30 55.66 30 56.32 30 57 C31.051875 57.0928125 31.051875 57.0928125 32.125 57.1875 C36.8308372 58.51741051 39.83972195 60.97318518 42.234375 65.15625 C47.22763652 76.01116636 47.98129452 89.62569376 43.9140625 100.953125 C40.61582685 108.33891766 36.4386369 112.02454524 29 115 C19.43 115.33 9.86 115.66 0 116 C0 77.72 0 39.44 0 0 Z M4 4 C4 20.83 4 37.66 4 55 C17.83453144 55.96688619 17.83453144 55.96688619 30.98828125 51.5546875 C37.57793539 43.19612915 39.58979854 34.45542223 38.75 23.83984375 C37.73282485 16.51073353 36.04771367 11.75037575 30.4375 6.6875 C22.23123545 1.00623993 15.69870378 4 4 4 Z M4 59 C4 76.16 4 93.32 4 111 C26.18033697 113.11999576 26.18033697 113.11999576 36 106 C42.00884496 99.6009703 43.42425122 90.75126265 43.1875 82.2578125 C42.61482679 75.36187265 41.00663226 69.67606237 37 64 C26.23244808 55.64965361 20.65710347 59 4 59 Z " fill="#FEFEFE" transform="translate(292,530)"/>
<path d="M0 0 C21.78 0 43.56 0 66 0 C64.875 9 64.875 9 63 13 C62.34 13 61.68 13 61 13 C61 13.66 61 14.32 61 15 C56.87159688 18.29783681 52.77772149 18.53638065 47.6875 18.6875 C46.89569336 18.72020996 46.10388672 18.75291992 45.28808594 18.78662109 C42.85882165 18.87819089 40.43034356 18.94470831 38 19 C37.28215332 19.01659668 36.56430664 19.03319336 35.82470703 19.05029297 C10.25611666 19.53863436 10.25611666 19.53863436 3 16 C-1.61481173 11.06692539 0 7.46323774 0 0 Z " fill="#2A928F" transform="translate(209,280)"/>
<path d="M0 0 C1.32673988 -0.00956978 1.32673988 -0.00956978 2.68028259 -0.01933289 C3.62827225 -0.02044571 4.5762619 -0.02155853 5.55297852 -0.02270508 C6.53428238 -0.02603348 7.51558624 -0.02936188 8.52662659 -0.03279114 C10.60026583 -0.03784957 12.67391319 -0.0401998 14.74755859 -0.04003906 C17.91655907 -0.04222575 21.08521148 -0.0603936 24.25415039 -0.0793457 C26.27042524 -0.08227981 28.28670175 -0.08426449 30.30297852 -0.08520508 C31.72192665 -0.09598335 31.72192665 -0.09598335 33.16954041 -0.10697937 C41.72779454 -0.07731597 41.72779454 -0.07731597 45.49438477 2.14526367 C47.57996234 5.27363003 47.8583207 6.63149401 48.18188477 10.27026367 C48.26825195 11.1597168 48.35461914 12.04916992 48.44360352 12.96557617 C48.46036133 13.68487305 48.47711914 14.40416992 48.49438477 15.14526367 C46.55101447 17.08863396 42.9610074 16.55649767 40.30297852 16.69995117 C39.55100693 16.74199677 38.79903534 16.78404236 38.02427673 16.82736206 C29.14522642 17.27700421 20.26590359 17.29585172 11.37744141 17.27563477 C8.50816811 17.2701709 5.6390446 17.27567153 2.76977539 17.28198242 C0.93969692 17.28132326 -0.89038146 17.28004548 -2.72045898 17.27807617 C-3.57550522 17.2801004 -4.43055145 17.28212463 -5.31150818 17.28421021 C-11.27556763 17.26028747 -11.27556763 17.26028747 -13.50561523 16.14526367 C-13.2383685 10.13221209 -12.62442798 5.85247824 -8.50561523 1.14526367 C-5.65873889 0.15211064 -2.99864071 0.01473998 0 0 Z " fill="#2B918E" transform="translate(224.505615234375,205.854736328125)"/>
<path d="M0 0 C1.32 0 2.64 0 4 0 C7.27048719 11.96524963 10.22687079 23.99653854 13.1328125 36.0546875 C13.61541884 38.05196238 14.0981586 40.04920502 14.58102417 42.04641724 C15.58554463 46.20288248 16.58889653 50.35962734 17.59130859 54.51660156 C18.87162941 59.82590896 20.15424733 65.13465805 21.4376545 70.44322014 C22.43178439 74.55585529 23.42503754 78.66870177 24.41799545 82.78162003 C24.89063392 84.73915317 25.36346243 86.69664044 25.83649063 88.65407944 C26.49746192 91.39011622 27.15733309 94.12641603 27.81689453 96.86279297 C28.00913605 97.65778702 28.20137756 98.45278107 28.39944458 99.27186584 C29.65847673 104.50203718 30.84932396 109.74494577 32 115 C30.35 114.67 28.7 114.34 27 114 C26.7326001 112.83952148 26.4652002 111.67904297 26.18969727 110.48339844 C25.19674223 106.17455618 24.20330245 101.86582579 23.2097168 97.55712891 C22.77989712 95.69290156 22.35020859 93.82864398 21.9206543 91.96435547 C21.30291741 89.28344879 20.6847077 86.60265152 20.06640625 83.921875 C19.87470352 83.08944275 19.68300079 82.2570105 19.48548889 81.39935303 C19.30537766 80.61884583 19.12526642 79.83833862 18.93969727 79.03417969 C18.70320213 78.00825714 18.70320213 78.00825714 18.46192932 76.96160889 C17.99293628 74.97000352 17.49624747 72.98498989 17 71 C7.1 71 -2.8 71 -13 71 C-13.71027344 74.00867188 -14.42054688 77.01734375 -15.15234375 80.1171875 C-15.84014321 83.02309078 -16.52879437 85.92879097 -17.2175293 88.83447266 C-17.69661189 90.85769903 -18.17480544 92.88113613 -18.65209961 94.90478516 C-19.33735599 97.80947522 -20.02578104 100.71339837 -20.71484375 103.6171875 C-21.03520851 104.97975174 -21.03520851 104.97975174 -21.36204529 106.36984253 C-21.56217728 107.21056305 -21.76230927 108.05128357 -21.96850586 108.91748047 C-22.14393417 109.65916473 -22.31936249 110.400849 -22.50010681 111.16500854 C-23 113 -23 113 -24 115 C-25.32 115 -26.64 115 -28 115 C-26.69769581 108.24680784 -25.22661382 101.55448041 -23.6015625 94.87207031 C-23.37039734 93.91464432 -23.13923218 92.95721832 -22.90106201 91.97077942 C-22.14440363 88.83939977 -21.38483322 85.70873566 -20.625 82.578125 C-20.09446361 80.38721095 -19.56402905 78.19627223 -19.03369141 76.00531006 C-17.92548996 71.42915895 -16.81579262 66.8533738 -15.70507812 62.27783203 C-14.28298112 56.41886984 -12.86504619 50.55890944 -11.44827271 44.69865799 C-10.35543505 40.18062466 -9.26019292 35.66317683 -8.16424561 31.14589691 C-7.64037329 28.98516669 -7.11729489 26.82424382 -6.59503174 24.66312408 C-5.86530669 21.6449269 -5.13229486 18.62754626 -4.3984375 15.61035156 C-4.07730988 14.27769005 -4.07730988 14.27769005 -3.74969482 12.91810608 C-2.68002313 8.53551095 -1.50859806 4.25793355 0 0 Z M1 9 C-0.85789605 16.47317203 -2.70856716 23.94810619 -4.55419922 31.42431641 C-5.1830647 33.96802372 -5.81358995 36.51132129 -6.44580078 39.05419922 C-7.35364284 42.70694522 -8.25552791 46.3611177 -9.15625 50.015625 C-9.44060913 51.15429016 -9.72496826 52.29295532 -10.01794434 53.46612549 C-10.27821411 54.52692322 -10.53848389 55.58772095 -10.80664062 56.68066406 C-11.03758423 57.61332092 -11.26852783 58.54597778 -11.50646973 59.50689697 C-12.12945993 62.2303955 -12.12945993 62.2303955 -12 66 C-2.76 66 6.48 66 16 66 C14.53402729 57.71429539 14.53402729 57.71429539 12.76318359 49.52856445 C12.54310638 48.6084407 12.32302917 47.68831696 12.09628296 46.74031067 C11.75084946 45.31618111 11.75084946 45.31618111 11.3984375 43.86328125 C11.1571109 42.85782761 10.9157843 41.85237396 10.66714478 40.81645203 C9.90592783 37.64777893 9.14054096 34.48013088 8.375 31.3125 C7.85388895 29.14655117 7.33305312 26.98053611 6.8125 24.81445312 C5.54484341 19.54219979 4.27377426 14.27077845 3 9 C2.34 9 1.68 9 1 9 Z " fill="#FEFEFE" transform="translate(248,530)"/>
<path d="M0 0 C1.25727402 -0.00786278 1.25727402 -0.00786278 2.53994751 -0.0158844 C4.30656837 -0.02228423 6.07323195 -0.02099409 7.83984375 -0.01245117 C10.52422068 -0.00395323 13.20645853 -0.03270968 15.890625 -0.06445312 C17.6145827 -0.06606584 19.33854413 -0.06548627 21.0625 -0.0625 C21.85546478 -0.07373398 22.64842957 -0.08496796 23.46542358 -0.09654236 C29.32711682 -0.02426917 33.08134421 1.51683532 38.1640625 4.43359375 C38.1640625 5.09359375 38.1640625 5.75359375 38.1640625 6.43359375 C38.8240625 6.43359375 39.4840625 6.43359375 40.1640625 6.43359375 C41.44724142 10.28313051 41.23049887 13.3809751 41.1640625 17.43359375 C35.06231909 18.34878894 29.23523403 18.5125485 23.07421875 18.34765625 C22.13025742 18.32641693 21.18629608 18.30517761 20.21372986 18.28329468 C18.22778659 18.23727528 16.24190831 18.18836937 14.25610352 18.13671875 C11.23922241 18.05892022 8.22224089 17.99164422 5.20507812 17.92578125 C3.26560997 17.87953214 1.32615616 17.83267714 -0.61328125 17.78515625 C-1.50417953 17.7653067 -2.39507782 17.74545715 -3.31297302 17.7250061 C-8.87298227 17.57421042 -14.31540566 17.11707155 -19.8359375 16.43359375 C-20.27796094 12.01335934 -20.17848838 9.95749509 -17.7109375 6.18359375 C-12.15033746 0.86475893 -7.3761661 -0.02716863 0 0 Z " fill="#EEF2F1" transform="translate(230.8359375,386.56640625)"/>
<path d="M0 0 C1.09438385 -0.00622879 2.1887677 -0.01245758 3.3163147 -0.01887512 C4.49245331 -0.00966537 5.66859192 -0.00045563 6.88037109 0.0090332 C8.69594009 0.00828545 8.69594009 0.00828545 10.54818726 0.00752258 C13.10522098 0.0098624 15.66225703 0.01958537 18.21923828 0.03613281 C22.14555299 0.05976476 26.07119067 0.05668785 29.99755859 0.05004883 C32.4793335 0.05562412 34.96110553 0.06273306 37.44287109 0.0715332 C38.62305817 0.0706218 39.80324524 0.06971039 41.01919556 0.06877136 C42.65131485 0.08306938 42.65131485 0.08306938 44.31640625 0.09765625 C45.2769693 0.10226364 46.23753235 0.10687103 47.22720337 0.11161804 C49.52880859 0.37231445 49.52880859 0.37231445 51.52880859 2.37231445 C51.79443359 4.4309082 51.79443359 4.4309082 51.77880859 6.80981445 C51.78654297 7.98350586 51.78654297 7.98350586 51.79443359 9.1809082 C51.52880859 11.37231445 51.52880859 11.37231445 49.52880859 14.37231445 C46.55890192 15.36228335 44.47602038 15.53700247 41.37060547 15.609375 C40.31941528 15.6357756 39.2682251 15.66217621 38.18518066 15.68937683 C36.48355774 15.72385674 36.48355774 15.72385674 34.74755859 15.7590332 C33.58252808 15.78455765 32.41749756 15.81008209 31.21716309 15.83638 C28.7525749 15.88840474 26.28793068 15.93782969 23.82324219 15.98486328 C20.04378633 16.0595186 16.2649252 16.15014072 12.48583984 16.24145508 C10.09393248 16.28996323 7.70200561 16.33752128 5.31005859 16.3840332 C4.17564331 16.4130925 3.04122803 16.44215179 1.87243652 16.47209167 C0.82124634 16.4890358 -0.22994385 16.50597992 -1.31298828 16.5234375 C-2.23881714 16.54262741 -3.164646 16.56181732 -4.11853027 16.58158875 C-6.47119141 16.37231445 -6.47119141 16.37231445 -9.47119141 14.37231445 C-9.90478516 11.8762207 -9.90478516 11.8762207 -9.90869141 8.93481445 C-9.92802734 7.96672852 -9.94736328 6.99864258 -9.96728516 6.0012207 C-9.47119141 3.37231445 -9.47119141 3.37231445 -7.78213501 1.73127747 C-4.96920871 0.07712079 -3.25045946 -0.0021264 0 0 Z " fill="#F1F5F5" transform="translate(350.47119140625,460.627685546875)"/>
<path d="M0 0 C0.90143738 0.0136409 1.80287476 0.0272818 2.73162842 0.04133606 C3.70867737 0.06209702 4.68572632 0.08285797 5.69238281 0.10424805 C6.69634094 0.12311569 7.70029907 0.14198334 8.73468018 0.16142273 C10.86321465 0.20335855 12.99169536 0.2481012 15.12011719 0.29541016 C18.36805609 0.36537545 21.61601179 0.41985971 24.86425781 0.47338867 C26.93198598 0.51605808 28.99969539 0.55964823 31.06738281 0.60424805 C32.03633484 0.61893631 33.00528687 0.63362457 34.00360107 0.64875793 C38.92514105 0.77312223 43.02954904 1.13529019 47.64550781 3.0534668 C48.57804832 6.09904705 48.90356014 7.51534403 47.50097656 10.44018555 C46.95054687 11.19944336 46.40011719 11.95870117 45.83300781 12.7409668 C45.01896484 13.89145508 45.01896484 13.89145508 44.18847656 15.06518555 C42.64550781 17.0534668 42.64550781 17.0534668 40.64550781 19.0534668 C37.83517356 19.27802181 35.12634012 19.38162924 32.31347656 19.3894043 C31.48471512 19.3960611 30.65595367 19.4027179 29.80207825 19.40957642 C28.04605328 19.41971211 26.28998973 19.42439315 24.53393555 19.42407227 C21.85367745 19.42843317 19.17508236 19.46470684 16.49511719 19.50268555 C14.78874261 19.50855609 13.08236021 19.51252389 11.37597656 19.5144043 C10.57685349 19.52877533 9.77773041 19.54314636 8.95439148 19.55795288 C5.02602415 19.52589229 3.09207702 19.33412851 -0.31494141 17.19287109 C-2.66827898 14.72431745 -3.60004228 12.71816095 -4.66699219 9.4909668 C-4.993125 8.54092773 -5.31925781 7.59088867 -5.65527344 6.61206055 C-6.35449219 4.0534668 -6.35449219 4.0534668 -6.35449219 1.0534668 C-3.98755981 -0.12999939 -2.63601671 -0.04628547 0 0 Z " fill="#F1EFED" transform="translate(220.3544921875,108.946533203125)"/>
<path d="M0 0 C1.74144287 -0.02731201 1.74144287 -0.02731201 3.51806641 -0.05517578 C4.52571045 -0.07443115 5.53335449 -0.09368652 6.5715332 -0.11352539 C9.06884766 0.09716797 9.06884766 0.09716797 12.06884766 2.09716797 C13.04186206 6.39464823 13.2295533 9.84124729 12.06884766 14.09716797 C9.22458953 15.04525401 7.44305766 15.22860441 4.49316406 15.24243164 C3.56855377 15.24881149 2.64394348 15.25519135 1.6913147 15.26176453 C0.19596695 15.26343376 0.19596695 15.26343376 -1.32958984 15.26513672 C-2.35670074 15.26846512 -3.38381165 15.27179352 -4.44204712 15.27522278 C-6.61581982 15.28028737 -8.78960031 15.28263125 -10.96337891 15.2824707 C-14.28610076 15.28465479 -17.60848935 15.302809 -20.93115234 15.32177734 C-23.04313037 15.32471184 -25.15510998 15.32669626 -27.26708984 15.32763672 C-28.25993988 15.33482224 -29.25278992 15.34200775 -30.27572632 15.34941101 C-38.79369195 15.32125953 -38.79369195 15.32125953 -42.93115234 13.09716797 C-42.05615234 5.47216797 -42.05615234 5.47216797 -40.93115234 2.09716797 C-37.93619348 0.59968854 -34.82613342 0.85770734 -31.53662109 0.78076172 C-30.79342117 0.75998062 -30.05022125 0.73919952 -29.28450012 0.7177887 C-27.7033162 0.67447779 -26.12206861 0.63344168 -24.54077148 0.59448242 C-22.16618138 0.5358417 -19.79185659 0.47050037 -17.41748047 0.40380859 C-13.62783488 0.30020276 -9.83812745 0.21376721 -6.04779053 0.13983154 C-4.03173108 0.09919526 -2.01585325 0.0498267 0 0 Z " fill="#EAEDED" transform="translate(383.93115234375,424.90283203125)"/>
<path d="M0 0 C1.32 0 2.64 0 4 0 C4 36.3 4 72.6 4 110 C18.19 110 32.38 110 47 110 C47 111.65 47 113.3 47 115 C31.49 115 15.98 115 0 115 C0 77.05 0 39.1 0 0 Z " fill="#FEFEFE" transform="translate(168,531)"/>
<path d="M0 0 C2.29109597 -0.08075665 4.58299267 -0.13907731 6.875 -0.1875 C8.78925781 -0.23970703 8.78925781 -0.23970703 10.7421875 -0.29296875 C11.81726563 -0.19628906 12.89234375 -0.09960938 14 0 C16.50846818 3.76270228 16.61870027 6.6472616 16 11 C13.19661734 19.80338266 13.19661734 19.80338266 11 22 C9.14712498 22.07226502 7.29166122 22.0838122 5.4375 22.0625 C4.42558594 22.05347656 3.41367188 22.04445312 2.37109375 22.03515625 C1.58863281 22.02355469 0.80617188 22.01195312 0 22 C-3.57216495 6.43556701 -3.57216495 6.43556701 0 0 Z " fill="#F0F0EF" transform="translate(108,132)"/>
<path d="M0 0 C2.45898655 -0.08076963 4.91533742 -0.14037143 7.375 -0.1875 C8.07367188 -0.21263672 8.77234375 -0.23777344 9.4921875 -0.26367188 C11.5234375 -0.29296875 11.5234375 -0.29296875 15 0 C17.13163428 3.19745142 17.31975564 4.28757916 17.375 8 C17.40335938 8.86625 17.43171875 9.7325 17.4609375 10.625 C17 13 17 13 15.28125 14.7890625 C11.32142023 16.89102693 7.36555219 16.53539791 3 16 C-0.625 14.5 -0.625 14.5 -3 13 C-3.31983794 7.66936775 -2.5160562 4.66229836 0 0 Z " fill="#E3E4E2" transform="translate(107,213)"/>
<path d="M0 0 C1.051875 -0.01417969 2.10375 -0.02835938 3.1875 -0.04296875 C6 0.1875 6 0.1875 9 2.1875 C9.43359375 4.2109375 9.43359375 4.2109375 9.4375 6.5625 C9.46650391 7.71878906 9.46650391 7.71878906 9.49609375 8.8984375 C8.79746696 12.12202254 7.65387582 13.25582646 5 15.1875 C1.87109375 15.6484375 1.87109375 15.6484375 -1.5625 15.5625 C-2.69816406 15.54960937 -3.83382812 15.53671875 -5.00390625 15.5234375 C-8 15.1875 -8 15.1875 -11 13.1875 C-11.36328125 11.12890625 -11.36328125 11.12890625 -11.3125 8.75 C-11.30863281 7.96753906 -11.30476563 7.18507812 -11.30078125 6.37890625 C-11 4.1875 -11 4.1875 -9 1.1875 C-5.79226388 0.11825463 -3.37015182 0.02065044 0 0 Z " fill="#E5E6E3" transform="translate(116,179.8125)"/>
<path d="M0 0 C0.99 0.33 1.98 0.66 3 1 C-3.93 7.93 -10.86 14.86 -18 22 C-18.33 21.01 -18.66 20.02 -19 19 C-12.73 12.73 -6.46 6.46 0 0 Z " fill="#97A8A1" transform="translate(207,358)"/>
<path d="M0 0 C0.66 0 1.32 0 2 0 C0.52278578 3.45201639 -1.43794001 5.64961936 -4.125 8.25 C-4.84945312 8.95640625 -5.57390625 9.6628125 -6.3203125 10.390625 C-6.87460937 10.92171875 -7.42890625 11.4528125 -8 12 C-8 8.24111186 -7.049166 7.58681685 -4.5625 4.875 C-3.92441406 4.17117187 -3.28632812 3.46734375 -2.62890625 2.7421875 C-1.76410115 1.81724008 -0.89538137 0.89538137 0 0 Z " fill="#9DA29B" transform="translate(65,20)"/>
<path d="M0 0 C4.62 0 9.24 0 14 0 C14 0.99 14 1.98 14 3 C13.67 2.67 13.34 2.34 13 2 C11.21059028 1.90091217 9.41714492 1.87029621 7.625 1.875 C6.15933594 1.87113281 6.15933594 1.87113281 4.6640625 1.8671875 C1.89535584 1.88565965 1.89535584 1.88565965 -1 3 C-0.67 2.01 -0.34 1.02 0 0 Z " fill="#7C8075" transform="translate(108,132)"/>
<path d="" fill="#5B5D65" transform="translate(0,0)"/>
<path d="" fill="#99A19F" transform="translate(0,0)"/>
</svg>
